{
    "asset": {
        "version": "1.0",
        "generator": "Open Asset Import Library (assimp v4.1.0)"
    },
    "accessors": {
        "mesh_accessor": {
            "bufferView": "mesh_view",
            "byteOffset": 0,
            "byteStride": 0,
            "componentType": 5126,
            "count": 1302,
            "type": "VEC3",
            "max": [
                0.0,
                12384.90234375,
                7956.79052734375
            ],
            "min": [
                -5750.0,
                -6.727383000714252e-14,
                16.0
            ]
        },
        "mesh_accessor_0": {
            "bufferView": "mesh_view_0",
            "byteOffset": 0,
            "byteStride": 0,
            "componentType": 5126,
            "count": 1302,
            "type": "VEC3",
            "max": [
                1.0,
                1.0,
                1.0
            ],
            "min": [
                -1.0,
                -1.0,
                -1.0
            ]
        },
        "mesh_accessor_1": {
            "bufferView": "mesh_view_1",
            "byteOffset": 0,
            "byteStride": 0,
            "componentType": 5123,
            "count": 3747,
            "type": "SCALAR",
            "max": [
                1301.0
            ],
            "min": [
                0.0
            ]
        }
    },
    "buffers": {
        "../../download/240p1mmp6yqh/240p1mmp6yqh": {
            "byteLength": 38742,
            "type": "arraybuffer",
            "uri": "../../download/240p1mmp6yqh/240p1mmp6yqh.bin"
        }
    },
    "bufferViews": {
        "mesh_view": {
            "buffer": "../../download/240p1mmp6yqh/240p1mmp6yqh",
            "byteOffset": 0,
            "byteLength": 15624,
            "target": 34962
        },
        "mesh_view_0": {
            "buffer": "../../download/240p1mmp6yqh/240p1mmp6yqh",
            "byteOffset": 15624,
            "byteLength": 15624,
            "target": 34962
        },
        "mesh_view_1": {
            "buffer": "../../download/240p1mmp6yqh/240p1mmp6yqh",
            "byteOffset": 31248,
            "byteLength": 7494,
            "target": 34963
        }
    },
    "materials": {
        "DefaultMaterial": {
            "values": {
                "ambient": [
                    1.0,
                    1.0,
                    1.0,
                    1.0
                ],
                "diffuse": [
                    1.0,
                    1.0,
                    1.0,
                    1.0
                ],
                "specular": [
                    1.0,
                    1.0,
                    1.0,
                    1.0
                ],
                "emission": [
                    0.0,
                    0.0,
                    0.0,
                    1.0
                ],
                "shininess": 0.0
            }
        }
    },
    "meshes": {
        "mesh": {
            "name": "",
            "primitives": [
                {
                    "mode": 4,
                    "material": "DefaultMaterial",
                    "indices": "mesh_accessor_1",
                    "attributes": {
                        "POSITION": "mesh_accessor",
                        "NORMAL": "mesh_accessor_0"
                    }
                }
            ]
        }
    },
    "nodes": {
        "<STL_BINARY>": {
            "meshes": [
                "mesh"
            ]
        }
    },
    "scenes": {
        "defaultScene": {
            "nodes": [
                "<STL_BINARY>"
            ]
        }
    },
    "scene": "defaultScene"
}